# xmcd CD Database Entry
#
# Track frame offsets:
# 150
# 11575
# 26583
# 38879
# 49004
# 64862
# 75338
# 91896
# 103824
# 116769
# 134480
# 148193
# 175513
# 190241
#
# Disc length: 2764 seconds
#
# Revision: 10
# Processed by: cddbd v1.5.1PL0 Copyright (c) Steve Scherf et al.
# Submitted via: RSJCDWriter_freedb_lib_OS/2 1.02
#
DISCID=b90aca0e
DTITLE=Patty Loveless - Mountain Soul
DYEAR=1900
DGENRE=
TTITLE0=The Boys Are Back In Town
TTITLE1=The Richest Fool Alive
TTITLE2=Daniel Prayed
TTITLE3=Someone I Used To Know (Duet With Jon Randall)
TTITLE4=Out Of Control Raging Fire (Duet With Travis Tritt)
TTITLE5=Rise Up Lazarus
TTITLE6=Cheap Whiskey
TTITLE7=Pretty Little Miss
TTITLE8=I Know You're Married (But I Love You Still) (Duet With Travis Tritt)
TTITLE9=Sorrowful Angels
TTITLE10=Soul Of Constant Sorrow
TTITLE11=You'll Never Leave Harlan Alive
TTITLE12=Two Coats
TTITLE13=Sounds Of Loneliness
EXTD=2001
EXTT0=
EXTT1=
EXTT2=
EXTT3=
EXTT4=
EXTT5=
EXTT6=
EXTT7=
EXTT8=
EXTT9=
EXTT10=
EXTT11=
EXTT12=
EXTT13=
PLAYORDER=
